<svg width="737" height="397" viewBox="0 0 737 397" fill="none" xmlns="http://www.w3.org/2000/svg">
    <rect x="0.00195312" width="736" height="397" fill="#448AFF"/>
    <path d="M736.002 7.99507V0H384.723C384.867 0.827139 385.016 1.65289 385.171 2.47748C338.14 17.9592 304.002 61.8241 304.002 114.044C304.002 179.166 356.805 232 421.888 232H736.002V7.99507Z" fill="url(#paint0_linear_9227_18351)" fill-opacity="0.12"/>
    <path d="M729.627 94.5042C729.927 94.5042 730.226 94.3849 730.585 94.3849C732.412 94.3849 734.219 94.4699 736.003 94.636V208.621C734.219 208.787 732.412 208.872 730.585 208.872H538.93C507.187 208.872 481.434 183.231 481.434 151.628C481.434 126.286 498.084 104.999 521.022 97.4856C520.244 93.3713 519.765 89.1973 519.765 84.8444C519.765 47.9344 549.771 18.0605 586.844 18.0605C612.777 18.0605 634.997 32.8484 646.137 54.3146C654.941 43.8797 667.938 37.1416 682.672 37.1416C709.144 37.1416 730.585 58.4886 730.585 84.8444C730.585 88.1836 730.286 91.4035 729.627 94.5042Z" fill="url(#paint1_linear_9227_18351)" fill-opacity="0.12"/>
    <defs>
        <linearGradient id="paint0_linear_9227_18351" x1="513.998" y1="62.9612" x2="500.865" y2="232.235" gradientUnits="userSpaceOnUse">
            <stop stop-color="white"/>
            <stop offset="0.882322" stop-color="white" stop-opacity="0"/>
        </linearGradient>
        <linearGradient id="paint1_linear_9227_18351" x1="667.001" y1="3.99745" x2="588.464" y2="201.086" gradientUnits="userSpaceOnUse">
            <stop stop-color="white"/>
            <stop offset="0.906245" stop-color="white" stop-opacity="0"/>
        </linearGradient>
    </defs>
</svg>