                                <svg width="120" height="120" viewBox="0 0 120 120" fill="none" xmlns="http://www.w3.org/2000/svg">
                                <path d="M89.9999 90C106.568 73.4315 106.568 46.5686 89.9999 30.0001C73.4314 13.4316 46.5685 13.4316 30 30.0001C13.4314 46.5686 13.4314 73.4315 30 90C46.5685 106.569 73.4314 106.569 89.9999 90Z" fill="#6BA3FF"></path>
                                <mask id="mask0" style="mask-type:alpha" maskUnits="userSpaceOnUse" x="17" y="17" width="86" height="86">
                                    <path d="M89.9999 90C106.568 73.4315 106.568 46.5686 89.9999 30.0001C73.4314 13.4316 46.5685 13.4316 30 30.0001C13.4314 46.5686 13.4314 73.4315 30 90C46.5685 106.569 73.4314 106.569 89.9999 90Z" fill="#448AFF"></path>
                                </mask>
                                <g mask="url(#mask0)">
                                    <path d="M63.7834 17.7343C63.9549 17.8446 64.1363 17.9582 64.3274 18.0748C64.3444 17.9538 73.2682 20.7786 74.183 21.1967C76.8319 22.4086 78.4553 22.8428 75.551 23.7614C76.8139 23.3622 79.6634 31.1177 81.6661 30.797C83.6149 30.4838 84.1891 32.6767 84.7056 34.1828C84.979 34.9812 85.8305 35.4476 85.5117 36.4078C85.4104 36.7125 84.0188 37.3387 84.1257 37.5431C84.7094 38.6547 87.3716 38.7824 87.3876 40.4152C87.1303 40.8251 86.7396 41.0222 86.2155 41.0065C84.9857 41.505 86.1502 42.5021 86.3867 43.2769C86.9544 45.1396 88.7404 46.7942 90.0318 44.6742C91.3231 42.5542 88.3583 40.4578 90.1604 38.2829C91.2171 37.0086 94.0391 39.2942 93.3712 36.8638C93.182 36.1666 90.2437 33.0797 91.8699 32.6304C91.9494 32.6077 92.0033 32.4487 92.0373 32.1867C84.8331 23.9104 74.711 18.7362 63.7834 17.7437V17.7343Z" fill="#E0E6E9"></path>
                                    <path d="M97.7617 40.6611C97.5554 40.2591 95.4591 42.5664 95.0248 42.8067C93.4364 43.6827 93.0883 41.9553 91.7554 43.7792C91.5207 44.1009 89.1065 47.3032 89.0961 46.9446C89.1406 48.1328 88.6486 49.3097 89.2209 50.4506C89.7337 51.4732 88.5275 52.4003 88.6004 53.4779C88.695 54.8969 87.3998 55.859 87.7272 57.2686C88.011 58.4918 88.747 59.3839 88.7489 60.6875C88.7489 62.7612 88.3762 63.7053 90.0421 65.1915C91.113 66.147 92.5065 69.4486 94.3938 67.5869C94.7391 67.2454 98.1779 64.4924 97.9745 64.2758C99.1949 65.5737 98.1202 64.7233 99.8562 64.6419C100.329 64.6201 99.5052 76.576 98.7881 76.3026C98.9192 76.3442 99.0613 76.3344 99.1854 76.2751C99.579 75.3253 99.9407 74.3544 100.271 73.3623C102.05 68.0191 102.745 62.3741 102.315 56.7587C101.884 51.1432 100.336 45.6704 97.7617 40.6611Z" fill="#E0E6E9"></path>
                                    <path d="M77.8977 80.3941C77.911 79.1708 75.6273 78.029 74.3852 78.082C71.7287 78.1898 71.0258 77.3308 68.5576 76.6942C66.4849 76.1597 66.8046 72.631 63.6591 72.4787C61.9847 72.3973 58.8259 67.8432 57.1732 69.2035C56.0796 70.1051 53.9747 67.6899 53.2406 67.6767C51.5453 67.6568 52.9161 68.6624 51.8083 67.4014C51.0798 66.5708 49.0781 68.3181 48.6561 68.8128C47.8378 69.7711 44.2704 68.3322 43.7141 66.9558C43.5173 66.4686 44.6601 64.5094 43.8087 63.114C43.4823 62.5776 41.1201 62.9711 40.754 62.6145C40.2611 62.1339 42.0198 60.3696 41.8221 60.0016C40.9971 58.4728 38.2896 62.308 37.109 59.222C36.1497 56.7122 37.4003 55.77 37.6472 53.3567C37.7636 52.2215 39.7001 51.6614 40.6395 52.0739C42.1446 52.7361 41.9431 52.1183 43.085 51.9944C43.9856 51.8998 44.9439 52.9168 45.8133 53.0682C46.8388 53.246 46.1369 56.1238 47.1037 56.8125C47.6656 57.2127 47.6524 52.9414 47.6893 52.8392C48.3033 51.108 50.9862 51.265 51.4138 49.8119C52.4696 46.2303 54.897 46.5008 57.8335 45.2332C59.2336 44.6306 62.6951 43.9315 63.5711 42.5588C65.203 40.0045 60.9128 36.1816 59.7927 34.3785C59.7795 34.3567 58.8003 35.4816 58.5742 35.491C57.7427 35.5251 56.966 30.8375 55.3776 33.529C55.0739 34.0417 53.9085 34.1912 54.5593 34.948C55.8298 36.4266 53.3683 36.7795 52.601 36.5695C51.8338 36.3595 48.0024 34.1439 49.3458 32.9103C52.0892 30.3929 52.7061 31.6956 55.5498 31.6804C58.8089 31.6662 58.9262 34.7295 61.6214 31.4534C62.3668 30.5471 57.4967 27.9531 58.4579 26.8075C61.8636 22.7396 63.731 31.7694 65.0072 33.335C66.8709 35.6235 68.0714 34.4163 67.9229 31.8895C67.8529 30.6994 70.3825 29.5926 70.5594 28.3069C70.5944 28.0449 68.9266 25.677 68.6787 25.5171C67.7999 24.9495 67.5974 24.3563 67.1462 23.7925C66.5786 23.083 65.6846 24.1454 65.1775 23.5087C64.9429 23.2154 60.6669 23.3791 60.2118 23.3848C57.966 23.2987 55.4514 23.3734 53.1876 23.4075C52.2586 23.3715 47.343 25.7725 47.2125 23.8076C47.1482 22.8332 48.3174 21.1209 46.2305 21.9156C45.5626 22.1682 45.1398 21.7954 45.275 21.768C43.8342 22.0613 41.1409 23.0678 39.9858 24.1037C39.3463 24.677 40.8789 24.9419 40.9829 25.4348C41.1844 26.3808 38.7929 28.1508 38.2584 28.7667C36.355 30.9586 36.4411 33.8752 33.8773 36.0076C30.9172 38.4672 30.7555 42.0716 30.7242 45.4678C30.71 47.1148 29.2986 47.8083 30.1907 49.671C30.9475 51.2612 32.3665 52.0228 32.6002 53.9527C32.7554 55.2194 31.762 56.3963 32.2417 57.6308C32.8329 59.1445 33.9559 60.4973 35.3304 61.2182C38.2631 62.7583 40.1835 63.9124 42.0642 66.7335C44.3962 70.2338 48.5521 68.704 47.1898 72.2355C46.6165 73.7227 45.1558 74.4294 44.557 76.0196C43.8399 77.924 45.2192 79.3005 46.1038 80.8444C46.9883 82.3883 47.327 84.2699 48.8898 85.3304C50.0099 86.0872 52.0486 86.7211 52.3371 88.2631C52.7959 90.7227 50.7213 93.7898 50.9427 96.0385C51.0902 97.5521 51.1186 99.1083 52.4345 100.095C54.8062 101.874 54.2443 99.394 55.7163 98.2228C57.0984 97.1235 58.7275 97.449 60.3055 97.011C61.7529 96.6099 60.0283 96.0782 60.6148 95.748C61.8579 95.0499 62.5948 96.0981 63.7793 95.0347C64.8587 94.065 66.3184 93.7888 66.8207 92.2742C67.6428 89.7966 71.3777 90.7029 72.9339 88.7739C73.8932 87.5867 74.3095 86.3237 74.739 84.8867C75.2678 83.1167 77.8769 82.3069 77.8977 80.3941C77.9119 79.1141 77.8845 81.6702 77.8977 80.3941Z" fill="#E0E6E9"></path>
                                </g>
                                </svg>