<svg width="737" height="397" viewBox="0 0 737 397" fill="none" xmlns="http://www.w3.org/2000/svg">
    <rect x="0.000976562" width="736" height="397" fill="#34515E"/>
    <path d="M736.001 7.99507V0H384.722C384.866 0.827139 385.015 1.65289 385.17 2.47748C338.139 17.9592 304.001 61.8241 304.001 114.044C304.001 179.166 356.804 232 421.887 232H736.001V7.99507Z" fill="url(#paint0_linear_9227_18348)" fill-opacity="0.06"/>
    <path d="M729.626 94.5042C729.926 94.5042 730.225 94.3849 730.584 94.3849C732.411 94.3849 734.218 94.4699 736.002 94.636V208.621C734.218 208.787 732.411 208.872 730.584 208.872H538.929C507.186 208.872 481.433 183.231 481.433 151.628C481.433 126.286 498.083 104.999 521.021 97.4856C520.243 93.3713 519.764 89.1973 519.764 84.8444C519.764 47.9344 549.77 18.0605 586.843 18.0605C612.776 18.0605 634.996 32.8484 646.136 54.3146C654.941 43.8797 667.937 37.1416 682.671 37.1416C709.143 37.1416 730.584 58.4886 730.584 84.8444C730.584 88.1836 730.285 91.4035 729.626 94.5042Z" fill="url(#paint1_linear_9227_18348)" fill-opacity="0.06"/>
    <defs>
        <linearGradient id="paint0_linear_9227_18348" x1="513.997" y1="62.9612" x2="500.864" y2="232.235" gradientUnits="userSpaceOnUse">
            <stop stop-color="white"/>
            <stop offset="0.882322" stop-color="white" stop-opacity="0"/>
        </linearGradient>
        <linearGradient id="paint1_linear_9227_18348" x1="667" y1="3.99745" x2="588.463" y2="201.086" gradientUnits="userSpaceOnUse">
            <stop stop-color="white"/>
            <stop offset="0.906245" stop-color="white" stop-opacity="0"/>
        </linearGradient>
    </defs>
</svg>