<svg width="736" height="397" viewBox="0 0 736 397" fill="none" xmlns="http://www.w3.org/2000/svg">
    <rect width="736" height="397" fill="#7196A9"/>
    <path d="M736 7.99507V0H384.721C384.865 0.827139 385.014 1.65289 385.169 2.47748C338.138 17.9592 304 61.8241 304 114.044C304 179.166 356.803 232 421.886 232H736V7.99507Z" fill="url(#paint0_linear_9227_18343)" fill-opacity="0.09"/>
    <path d="M729.625 94.5042C729.925 94.5042 730.224 94.3849 730.583 94.3849C732.41 94.3849 734.217 94.4699 736.001 94.636V208.621C734.217 208.787 732.41 208.872 730.583 208.872H538.928C507.185 208.872 481.432 183.231 481.432 151.628C481.432 126.286 498.082 104.999 521.02 97.4856C520.242 93.3713 519.763 89.1973 519.763 84.8444C519.763 47.9344 549.769 18.0605 586.842 18.0605C612.775 18.0605 634.995 32.8484 646.135 54.3146C654.94 43.8797 667.936 37.1416 682.67 37.1416C709.142 37.1416 730.583 58.4886 730.583 84.8444C730.583 88.1836 730.284 91.4035 729.625 94.5042Z" fill="url(#paint1_linear_9227_18343)" fill-opacity="0.09"/>
    <defs>
        <linearGradient id="paint0_linear_9227_18343" x1="513.996" y1="62.9612" x2="500.863" y2="232.235" gradientUnits="userSpaceOnUse">
            <stop stop-color="white"/>
            <stop offset="0.882322" stop-color="white" stop-opacity="0"/>
        </linearGradient>
        <linearGradient id="paint1_linear_9227_18343" x1="666.999" y1="3.99745" x2="588.462" y2="201.086" gradientUnits="userSpaceOnUse">
            <stop stop-color="white"/>
            <stop offset="0.906245" stop-color="white" stop-opacity="0"/>
        </linearGradient>
    </defs>
</svg>